<?xml version="1.0" encoding="UTF-8"?>
<svg id="Livello_2" data-name="Livello 2" xmlns="http://www.w3.org/2000/svg" xmlns:xlink="http://www.w3.org/1999/xlink" viewBox="0 0 837.26 893.7">
  <defs>
    <style>
      .cls-1, .cls-2, .cls-3, .cls-4, .cls-5 {
        fill: none;
      }

      .cls-2 {
        clip-path: url(#clippath-1);
      }

      .cls-6 {
        fill: #fff;
      }

      .cls-7 {
        fill: #febe76;
      }

      .cls-8 {
        fill: #e07058;
      }

      .cls-3 {
        stroke: #fff;
        stroke-width: 10px;
      }

      .cls-3, .cls-9 {
        stroke-miterlimit: 10;
      }

      .cls-4 {
        filter: url(#drop-shadow-1);
      }

      .cls-9 {
        stroke: #144d57;
        stroke-width: 3px;
      }

      .cls-9, .cls-10 {
        fill: url(#Sfumatura_senza_nome_48);
      }

      .cls-5 {
        clip-path: url(#clippath);
      }

      .cls-11 {
        fill: url(#Sfumatura_senza_nome_49);
      }
    </style>
    <filter id="drop-shadow-1" filterUnits="userSpaceOnUse">
      <feOffset dx="0" dy="10"/>
      <feGaussianBlur result="blur" stdDeviation="4"/>
      <feFlood flood-color="#000" flood-opacity=".35"/>
      <feComposite in2="blur" operator="in"/>
      <feComposite in="SourceGraphic"/>
    </filter>
    <clipPath id="clippath">
      <rect class="cls-1" x=".26" y="20.2" width="837" height="837" rx="120" ry="120"/>
    </clipPath>
    <linearGradient id="Sfumatura_senza_nome_49" data-name="Sfumatura senza nome 49" x1="238.38" y1="628.95" x2="599.13" y2="628.95" gradientUnits="userSpaceOnUse">
      <stop offset="0" stop-color="#027a8b"/>
      <stop offset=".31" stop-color="#037787"/>
      <stop offset=".57" stop-color="#066e7d"/>
      <stop offset=".8" stop-color="#0c606c"/>
      <stop offset="1" stop-color="#144d57"/>
    </linearGradient>
    <linearGradient id="Sfumatura_senza_nome_48" data-name="Sfumatura senza nome 48" x1="238.13" y1="437.51" x2="598.88" y2="437.51" gradientUnits="userSpaceOnUse">
      <stop offset="0" stop-color="#408d99"/>
      <stop offset=".16" stop-color="#449ba8"/>
      <stop offset=".4" stop-color="#49aab9"/>
      <stop offset=".67" stop-color="#4cb4c3"/>
      <stop offset="1" stop-color="#4db7c7"/>
    </linearGradient>
    <clipPath id="clippath-1">
      <path class="cls-1" d="m598.13,459.03v-18.42c-4.37,15.2-17.12,26.2-32.18,26.2-18.67,0-33.8-16.9-33.8-37.74,0-2.17.17-4.3.49-6.37h-193.55c0,.14,0,.28,0,.43,0,31.44-23.12,56.93-51.64,56.93-22.97,0-42.43-16.54-49.14-39.41v52.55h-66.24v102.5h457.14v-136.67h-31.09Z"/>
    </clipPath>
  </defs>
  <g id="ICON-3" class="cls-4">
    <g id="ICON_copia" data-name="ICON copia">
      <g id="RIQUADRO_copia" data-name="RIQUADRO copia">
        <g id="Livello_4_copia_2" data-name="Livello 4 copia 2">
          <rect class="cls-7" y="19.01" width="837" height="837" rx="120" ry="120"/>
        </g>
        <g id="Livello_5_copia_2" data-name="Livello 5 copia 2">
          <g class="cls-5">
            <g>
              <circle class="cls-8" cx="418.75" cy="164.45" r="180.37"/>
              <rect class="cls-8" x="237.88" y="164.45" width="360.23" height="275.81"/>
            </g>
          </g>
        </g>
      </g>
      <g id="CAPSULA-2_copia" data-name="CAPSULA-2 copia">
        <g id="CAPSULA-2A_copia_2" data-name="CAPSULA-2A copia 2">
          <path class="cls-11" d="m598.62,699.54v-262.03h-.04c-1.53-40.6-81.45-73.31-179.83-73.31s-178.3,32.72-179.83,73.31h-.54v275.81c0,99.62,80.76,180.38,180.38,180.38s180.38-80.76,180.38-180.38c0-4.64-.18-9.23-.52-13.78Z"/>
          <ellipse class="cls-10" cx="418.5" cy="437.51" rx="180.37" ry="74.5"/>
        </g>
        <g id="CAPSULA-2B_copia_2" data-name="CAPSULA-2B copia 2">
          <g class="cls-2">
            <ellipse class="cls-9" cx="418.5" cy="437.51" rx="180.37" ry="74.5"/>
          </g>
        </g>
      </g>
    </g>
    <g id="NETWORK-nodes_copia" data-name="NETWORK-nodes copia">
      <path class="cls-1" d="m370.76,0c-15.75,0-29.78,7.3-38.93,18.7h77.85c-9.14-11.4-23.18-18.7-38.93-18.7Z"/>
      <path class="cls-6" d="m409.69,18.7h-77.85c-6.86,8.55-10.97,19.39-10.97,31.2,0,27.56,22.34,49.9,49.9,49.9s49.9-22.34,49.9-49.9c0-11.81-4.11-22.65-10.97-31.2Z"/>
      <circle class="cls-6" cx="474.96" cy="437.51" r="50.12"/>
      <circle class="cls-6" cx="517.78" cy="151.27" r="50.7"/>
      <circle class="cls-6" cx="319.18" cy="275.87" r="51.58"/>
      <circle class="cls-6" cx="423.09" cy="316.78" r="21.41"/>
      <circle class="cls-6" cx="366.59" cy="408.28" r="21.41"/>
      <circle class="cls-6" cx="287.45" cy="383.03" r="21.41"/>
      <circle class="cls-6" cx="287.45" cy="133.19" r="21.41"/>
      <circle class="cls-6" cx="376.47" cy="162.7" r="21.41"/>
      <circle class="cls-6" cx="413.97" cy="229.03" r="21.41"/>
      <circle class="cls-6" cx="454.99" cy="91.81" r="21.41"/>
      <path class="cls-1" d="m486.88,11.78c-6.23,0-11.81,2.67-15.73,6.91h31.45c-3.91-4.24-9.5-6.91-15.73-6.91Z"/>
      <path class="cls-6" d="m502.61,18.7h-31.45c-3.52,3.82-5.69,8.9-5.69,14.5,0,11.83,9.59,21.41,21.41,21.41s21.41-9.59,21.41-21.41c0-5.6-2.17-10.68-5.69-14.5Z"/>
      <circle class="cls-6" cx="496.37" cy="299.35" r="21.41"/>
      <circle class="cls-6" cx="546.49" cy="350.86" r="21.41"/>
    </g>
    <g id="NETWORK-edges_copia" data-name="NETWORK-edges copia">
      <polyline class="cls-3" points="287.45 383.03 319.18 275.87 376.47 162.7 413.97 229.03 517.78 151.27 376.47 162.7 370.76 49.9 454.99 91.81 486.88 33.2 370.76 49.9 287.45 133.19 319.18 275.87 423.09 316.78 517.78 151.27 546.49 350.86 474.96 438.7 423.09 316.78 319.18 275.87 366.59 408.28 476.04 437.51 496.37 299.6 496.37 298.14 517.78 151.27"/>
    </g>
  </g>
</svg>